<svg x="10%" y="22%" height="35%" width="80%" viewBox="0 0 200 200"
            shape-rendering="crispEdges">
         <rect x="0" y="0" width="100%" height="100%" fill="#ffffff" />
         <path fill="#000000" d=" M24 24h6v6H24V24M30 24h6v6H30V24M36 24h6v6H36V24M42 24h6v6H42V24M48 24h6v6H48V24M54 24h6v6H54V24M60 24h6v6H60V24M72 24h6v6H72V24M90 24h6v6H90V24M96 24h6v6H96V24M114 24h6v6H114V24M120 24h6v6H120V24M138 24h6v6H138V24M144 24h6v6H144V24M156 24h6v6H156V24M162 24h6v6H162V24M168 24h6v6H168V24M174 24h6v6H174V24M180 24h6v6H180V24M186 24h6v6H186V24M192 24h6v6H192V24M24 30h6v6H24V30M60 30h6v6H60V30M72 30h6v6H72V30M78 30h6v6H78V30M84 30h6v6H84V30M96 30h6v6H96V30M102 30h6v6H102V30M108 30h6v6H108V30M120 30h6v6H120V30M126 30h6v6H126V30M132 30h6v6H132V30M144 30h6v6H144V30M156 30h6v6H156V30M192 30h6v6H192V30M24 36h6v6H24V36M36 36h6v6H36V36M42 36h6v6H42V36M48 36h6v6H48V36M60 36h6v6H60V36M84 36h6v6H84V36M90 36h6v6H90V36M96 36h6v6H96V36M108 36h6v6H108V36M114 36h6v6H114V36M120 36h6v6H120V36M132 36h6v6H132V36M138 36h6v6H138V36M144 36h6v6H144V36M156 36h6v6H156V36M168 36h6v6H168V36M174 36h6v6H174V36M180 36h6v6H180V36M192 36h6v6H192V36M24 42h6v6H24V42M36 42h6v6H36V42M42 42h6v6H42V42M48 42h6v6H48V42M60 42h6v6H60V42M84 42h6v6H84V42M108 42h6v6H108V42M132 42h6v6H132V42M156 42h6v6H156V42M168 42h6v6H168V42M174 42h6v6H174V42M180 42h6v6H180V42M192 42h6v6H192V42M24 48h6v6H24V48M36 48h6v6H36V48M42 48h6v6H42V48M48 48h6v6H48V48M60 48h6v6H60V48M72 48h6v6H72V48M78 48h6v6H78V48M84 48h6v6H84V48M90 48h6v6H90V48M102 48h6v6H102V48M108 48h6v6H108V48M114 48h6v6H114V48M126 48h6v6H126V48M132 48h6v6H132V48M138 48h6v6H138V48M156 48h6v6H156V48M168 48h6v6H168V48M174 48h6v6H174V48M180 48h6v6H180V48M192 48h6v6H192V48M24 54h6v6H24V54M60 54h6v6H60V54M72 54h6v6H72V54M90 54h6v6H90V54M114 54h6v6H114V54M138 54h6v6H138V54M156 54h6v6H156V54M192 54h6v6H192V54M24 60h6v6H24V60M30 60h6v6H30V60M36 60h6v6H36V60M42 60h6v6H42V60M48 60h6v6H48V60M54 60h6v6H54V60M60 60h6v6H60V60M72 60h6v6H72V60M84 60h6v6H84V60M96 60h6v6H96V60M108 60h6v6H108V60M120 60h6v6H120V60M132 60h6v6H132V60M144 60h6v6H144V60M156 60h6v6H156V60M162 60h6v6H162V60M168 60h6v6H168V60M174 60h6v6H174V60M180 60h6v6H180V60M186 60h6v6H186V60M192 60h6v6H192V60M72 66h6v6H72V66M84 66h6v6H84V66M90 66h6v6H90V66M96 66h6v6H96V66M108 66h6v6H108V66M114 66h6v6H114V66M120 66h6v6H120V66M132 66h6v6H132V66M138 66h6v6H138V66M144 66h6v6H144V66M24 72h6v6H24V72M30 72h6v6H30V72M36 72h6v6H36V72M54 72h6v6H54V72M60 72h6v6H60V72M72 72h6v6H72V72M78 72h6v6H78V72M84 72h6v6H84V72M102 72h6v6H102V72M108 72h6v6H108V72M126 72h6v6H126V72M132 72h6v6H132V72M150 72h6v6H150V72M156 72h6v6H156V72M162 72h6v6H162V72M168 72h6v6H168V72M186 72h6v6H186V72M192 72h6v6H192V72M24 78h6v6H24V78M54 78h6v6H54V78M78 78h6v6H78V78M84 78h6v6H84V78M102 78h6v6H102V78M108 78h6v6H108V78M126 78h6v6H126V78M132 78h6v6H132V78M156 78h6v6H156V78M162 78h6v6H162V78M174 78h6v6H174V78M180 78h6v6H180V78M192 78h6v6H192V78M30 84h6v6H30V84M36 84h6v6H36V84M48 84h6v6H48V84M60 84h6v6H60V84M66 84h6v6H66V84M90 84h6v6H90V84M114 84h6v6H114V84M138 84h6v6H138V84M168 84h6v6H168V84M174 84h6v6H174V84M180 84h6v6H180V84M192 84h6v6H192V84M24 90h6v6H24V90M72 90h6v6H72V90M78 90h6v6H78V90M102 90h6v6H102V90M126 90h6v6H126V90M156 90h6v6H156V90M168 90h6v6H168V90M174 90h6v6H174V90M30 96h6v6H30V96M42 96h6v6H42V96M60 96h6v6H60V96M66 96h6v6H66V96M78 96h6v6H78V96M90 96h6v6H90V96M96 96h6v6H96V96M102 96h6v6H102V96M114 96h6v6H114V96M120 96h6v6H120V96M126 96h6v6H126V96M138 96h6v6H138V96M144 96h6v6H144V96M156 96h6v6H156V96M162 96h6v6H162V96M174 96h6v6H174V96M24 102h6v6H24V102M30 102h6v6H30V102M42 102h6v6H42V102M48 102h6v6H48V102M54 102h6v6H54V102M66 102h6v6H66V102M72 102h6v6H72V102M78 102h6v6H78V102M96 102h6v6H96V102M120 102h6v6H120V102M144 102h6v6H144V102M156 102h6v6H156V102M162 102h6v6H162V102M174 102h6v6H174V102M180 102h6v6H180V102M192 102h6v6H192V102M42 108h6v6H42V108M60 108h6v6H60V108M72 108h6v6H72V108M78 108h6v6H78V108M84 108h6v6H84V108M96 108h6v6H96V108M102 108h6v6H102V108M108 108h6v6H108V108M120 108h6v6H120V108M126 108h6v6H126V108M132 108h6v6H132V108M144 108h6v6H144V108M162 108h6v6H162V108M168 108h6v6H168V108M192 108h6v6H192V108M30 114h6v6H30V114M42 114h6v6H42V114M66 114h6v6H66V114M78 114h6v6H78V114M90 114h6v6H90V114M96 114h6v6H96V114M108 114h6v6H108V114M114 114h6v6H114V114M120 114h6v6H120V114M132 114h6v6H132V114M138 114h6v6H138V114M144 114h6v6H144V114M150 114h6v6H150V114M156 114h6v6H156V114M162 114h6v6H162V114M168 114h6v6H168V114M186 114h6v6H186V114M24 120h6v6H24V120M30 120h6v6H30V120M36 120h6v6H36V120M42 120h6v6H42V120M60 120h6v6H60V120M66 120h6v6H66V120M102 120h6v6H102V120M108 120h6v6H108V120M126 120h6v6H126V120M132 120h6v6H132V120M150 120h6v6H150V120M156 120h6v6H156V120M162 120h6v6H162V120M168 120h6v6H168V120M174 120h6v6H174V120M186 120h6v6H186V120M192 120h6v6H192V120M42 126h6v6H42V126M48 126h6v6H48V126M54 126h6v6H54V126M72 126h6v6H72V126M78 126h6v6H78V126M102 126h6v6H102V126M108 126h6v6H108V126M126 126h6v6H126V126M132 126h6v6H132V126M162 126h6v6H162V126M192 126h6v6H192V126M24 132h6v6H24V132M30 132h6v6H30V132M36 132h6v6H36V132M48 132h6v6H48V132M60 132h6v6H60V132M72 132h6v6H72V132M78 132h6v6H78V132M90 132h6v6H90V132M114 132h6v6H114V132M138 132h6v6H138V132M162 132h6v6H162V132M168 132h6v6H168V132M174 132h6v6H174V132M180 132h6v6H180V132M192 132h6v6H192V132M48 138h6v6H48V138M54 138h6v6H54V138M78 138h6v6H78V138M102 138h6v6H102V138M126 138h6v6H126V138M156 138h6v6H156V138M174 138h6v6H174V138M24 144h6v6H24V144M30 144h6v6H30V144M36 144h6v6H36V144M42 144h6v6H42V144M60 144h6v6H60V144M78 144h6v6H78V144M84 144h6v6H84V144M90 144h6v6H90V144M96 144h6v6H96V144M102 144h6v6H102V144M114 144h6v6H114V144M120 144h6v6H120V144M126 144h6v6H126V144M138 144h6v6H138V144M144 144h6v6H144V144M150 144h6v6H150V144M156 144h6v6H156V144M162 144h6v6H162V144M168 144h6v6H168V144M174 144h6v6H174V144M180 144h6v6H180V144M186 144h6v6H186V144M72 150h6v6H72V150M96 150h6v6H96V150M120 150h6v6H120V150M144 150h6v6H144V150M168 150h6v6H168V150M24 156h6v6H24V156M30 156h6v6H30V156M36 156h6v6H36V156M42 156h6v6H42V156M48 156h6v6H48V156M54 156h6v6H54V156M60 156h6v6H60V156M96 156h6v6H96V156M102 156h6v6H102V156M108 156h6v6H108V156M120 156h6v6H120V156M126 156h6v6H126V156M132 156h6v6H132V156M138 156h6v6H138V156M144 156h6v6H144V156M156 156h6v6H156V156M168 156h6v6H168V156M180 156h6v6H180V156M192 156h6v6H192V156M24 162h6v6H24V162M60 162h6v6H60V162M72 162h6v6H72V162M78 162h6v6H78V162M90 162h6v6H90V162M96 162h6v6H96V162M108 162h6v6H108V162M114 162h6v6H114V162M120 162h6v6H120V162M132 162h6v6H132V162M138 162h6v6H138V162M144 162h6v6H144V162M168 162h6v6H168V162M174 162h6v6H174V162M192 162h6v6H192V162M24 168h6v6H24V168M36 168h6v6H36V168M42 168h6v6H42V168M48 168h6v6H48V168M60 168h6v6H60V168M78 168h6v6H78V168M84 168h6v6H84V168M102 168h6v6H102V168M108 168h6v6H108V168M126 168h6v6H126V168M132 168h6v6H132V168M144 168h6v6H144V168M150 168h6v6H150V168M156 168h6v6H156V168M162 168h6v6H162V168M168 168h6v6H168V168M180 168h6v6H180V168M24 174h6v6H24V174M36 174h6v6H36V174M42 174h6v6H42V174M48 174h6v6H48V174M60 174h6v6H60V174M78 174h6v6H78V174M84 174h6v6H84V174M102 174h6v6H102V174M108 174h6v6H108V174M126 174h6v6H126V174M132 174h6v6H132V174M144 174h6v6H144V174M150 174h6v6H150V174M156 174h6v6H156V174M168 174h6v6H168V174M180 174h6v6H180V174M24 180h6v6H24V180M36 180h6v6H36V180M42 180h6v6H42V180M48 180h6v6H48V180M60 180h6v6H60V180M72 180h6v6H72V180M78 180h6v6H78V180M90 180h6v6H90V180M114 180h6v6H114V180M150 180h6v6H150V180M156 180h6v6H156V180M162 180h6v6H162V180M168 180h6v6H168V180M180 180h6v6H180V180M186 180h6v6H186V180M192 180h6v6H192V180M24 186h6v6H24V186M60 186h6v6H60V186M72 186h6v6H72V186M84 186h6v6H84V186M102 186h6v6H102V186M126 186h6v6H126V186M138 186h6v6H138V186M162 186h6v6H162V186M168 186h6v6H168V186M174 186h6v6H174V186M24 192h6v6H24V192M30 192h6v6H30V192M36 192h6v6H36V192M42 192h6v6H42V192M48 192h6v6H48V192M54 192h6v6H54V192M60 192h6v6H60V192M72 192h6v6H72V192M84 192h6v6H84V192M90 192h6v6H90V192M96 192h6v6H96V192M102 192h6v6H102V192M114 192h6v6H114V192M120 192h6v6H120V192M126 192h6v6H126V192M138 192h6v6H138V192M144 192h6v6H144V192M156 192h6v6H156V192M174 192h6v6H174V192M180 192h6v6H180V192M192 192h6v6H192V192"/></svg>
