<?xml version="1.0" standalone="yes"?>
<svg xmlns="http://www.w3.org/2000/svg" version="1.1"
    viewBox="0 0 222 222" shape-rendering="crispEdges">
<rect x="0" y="0" width="222" height="222" fill="#e5bde3"/>
<path fill="#770000" d="M24 24h6v6H24V24M30 24h6v6H30V24M36 24h6v6H36V24M42 24h6v6H42V24M48 24h6v6H48V24M54 24h6v6H54V24M60 24h6v6H60V24M78 24h6v6H78V24M114 24h6v6H114V24M120 24h6v6H120V24M138 24h6v6H138V24M156 24h6v6H156V24M162 24h6v6H162V24M168 24h6v6H168V24M174 24h6v6H174V24M180 24h6v6H180V24M186 24h6v6H186V24M192 24h6v6H192V24M24 30h6v6H24V30M60 30h6v6H60V30M72 30h6v6H72V30M78 30h6v6H78V30M90 30h6v6H90V30M96 30h6v6H96V30M126 30h6v6H126V30M144 30h6v6H144V30M156 30h6v6H156V30M192 30h6v6H192V30M24 36h6v6H24V36M36 36h6v6H36V36M42 36h6v6H42V36M48 36h6v6H48V36M60 36h6v6H60V36M78 36h6v6H78V36M84 36h6v6H84V36M90 36h6v6H90V36M108 36h6v6H108V36M120 36h6v6H120V36M132 36h6v6H132V36M144 36h6v6H144V36M156 36h6v6H156V36M168 36h6v6H168V36M174 36h6v6H174V36M180 36h6v6H180V36M192 36h6v6H192V36M24 42h6v6H24V42M36 42h6v6H36V42M42 42h6v6H42V42M48 42h6v6H48V42M60 42h6v6H60V42M72 42h6v6H72V42M78 42h6v6H78V42M90 42h6v6H90V42M120 42h6v6H120V42M126 42h6v6H126V42M132 42h6v6H132V42M138 42h6v6H138V42M156 42h6v6H156V42M168 42h6v6H168V42M174 42h6v6H174V42M180 42h6v6H180V42M192 42h6v6H192V42M24 48h6v6H24V48M36 48h6v6H36V48M42 48h6v6H42V48M48 48h6v6H48V48M60 48h6v6H60V48M84 48h6v6H84V48M96 48h6v6H96V48M102 48h6v6H102V48M108 48h6v6H108V48M114 48h6v6H114V48M126 48h6v6H126V48M132 48h6v6H132V48M138 48h6v6H138V48M144 48h6v6H144V48M156 48h6v6H156V48M168 48h6v6H168V48M174 48h6v6H174V48M180 48h6v6H180V48M192 48h6v6H192V48M24 54h6v6H24V54M60 54h6v6H60V54M72 54h6v6H72V54M84 54h6v6H84V54M102 54h6v6H102V54M108 54h6v6H108V54M114 54h6v6H114V54M120 54h6v6H120V54M126 54h6v6H126V54M144 54h6v6H144V54M156 54h6v6H156V54M192 54h6v6H192V54M24 60h6v6H24V60M30 60h6v6H30V60M36 60h6v6H36V60M42 60h6v6H42V60M48 60h6v6H48V60M54 60h6v6H54V60M60 60h6v6H60V60M72 60h6v6H72V60M84 60h6v6H84V60M96 60h6v6H96V60M108 60h6v6H108V60M120 60h6v6H120V60M132 60h6v6H132V60M144 60h6v6H144V60M156 60h6v6H156V60M162 60h6v6H162V60M168 60h6v6H168V60M174 60h6v6H174V60M180 60h6v6H180V60M186 60h6v6H186V60M192 60h6v6H192V60M96 66h6v6H96V66M102 66h6v6H102V66M114 66h6v6H114V66M144 66h6v6H144V66M24 72h6v6H24V72M30 72h6v6H30V72M36 72h6v6H36V72M42 72h6v6H42V72M48 72h6v6H48V72M60 72h6v6H60V72M66 72h6v6H66V72M72 72h6v6H72V72M78 72h6v6H78V72M84 72h6v6H84V72M96 72h6v6H96V72M108 72h6v6H108V72M114 72h6v6H114V72M126 72h6v6H126V72M132 72h6v6H132V72M150 72h6v6H150V72M162 72h6v6H162V72M174 72h6v6H174V72M186 72h6v6H186V72M24 78h6v6H24V78M36 78h6v6H36V78M42 78h6v6H42V78M48 78h6v6H48V78M54 78h6v6H54V78M66 78h6v6H66V78M72 78h6v6H72V78M78 78h6v6H78V78M114 78h6v6H114V78M120 78h6v6H120V78M132 78h6v6H132V78M138 78h6v6H138V78M144 78h6v6H144V78M150 78h6v6H150V78M156 78h6v6H156V78M162 78h6v6H162V78M174 78h6v6H174V78M180 78h6v6H180V78M60 84h6v6H60V84M66 84h6v6H66V84M78 84h6v6H78V84M90 84h6v6H90V84M96 84h6v6H96V84M126 84h6v6H126V84M132 84h6v6H132V84M144 84h6v6H144V84M174 84h6v6H174V84M186 84h6v6H186V84M30 90h6v6H30V90M36 90h6v6H36V90M78 90h6v6H78V90M84 90h6v6H84V90M90 90h6v6H90V90M108 90h6v6H108V90M120 90h6v6H120V90M144 90h6v6H144V90M150 90h6v6H150V90M156 90h6v6H156V90M30 96h6v6H30V96M42 96h6v6H42V96M48 96h6v6H48V96M54 96h6v6H54V96M60 96h6v6H60V96M78 96h6v6H78V96M90 96h6v6H90V96M126 96h6v6H126V96M138 96h6v6H138V96M156 96h6v6H156V96M168 96h6v6H168V96M174 96h6v6H174V96M192 96h6v6H192V96M30 102h6v6H30V102M36 102h6v6H36V102M42 102h6v6H42V102M48 102h6v6H48V102M66 102h6v6H66V102M72 102h6v6H72V102M78 102h6v6H78V102M84 102h6v6H84V102M96 102h6v6H96V102M102 102h6v6H102V102M108 102h6v6H108V102M114 102h6v6H114V102M138 102h6v6H138V102M144 102h6v6H144V102M150 102h6v6H150V102M156 102h6v6H156V102M162 102h6v6H162V102M174 102h6v6H174V102M180 102h6v6H180V102M30 108h6v6H30V108M36 108h6v6H36V108M42 108h6v6H42V108M60 108h6v6H60V108M66 108h6v6H66V108M72 108h6v6H72V108M78 108h6v6H78V108M84 108h6v6H84V108M102 108h6v6H102V108M108 108h6v6H108V108M114 108h6v6H114V108M132 108h6v6H132V108M144 108h6v6H144V108M150 108h6v6H150V108M156 108h6v6H156V108M168 108h6v6H168V108M186 108h6v6H186V108M30 114h6v6H30V114M54 114h6v6H54V114M66 114h6v6H66V114M72 114h6v6H72V114M78 114h6v6H78V114M96 114h6v6H96V114M102 114h6v6H102V114M114 114h6v6H114V114M120 114h6v6H120V114M132 114h6v6H132V114M138 114h6v6H138V114M144 114h6v6H144V114M150 114h6v6H150V114M162 114h6v6H162V114M168 114h6v6H168V114M186 114h6v6H186V114M192 114h6v6H192V114M42 120h6v6H42V120M48 120h6v6H48V120M54 120h6v6H54V120M60 120h6v6H60V120M66 120h6v6H66V120M72 120h6v6H72V120M78 120h6v6H78V120M84 120h6v6H84V120M96 120h6v6H96V120M108 120h6v6H108V120M114 120h6v6H114V120M120 120h6v6H120V120M126 120h6v6H126V120M132 120h6v6H132V120M138 120h6v6H138V120M156 120h6v6H156V120M168 120h6v6H168V120M174 120h6v6H174V120M186 120h6v6H186V120M192 120h6v6H192V120M24 126h6v6H24V126M30 126h6v6H30V126M36 126h6v6H36V126M54 126h6v6H54V126M72 126h6v6H72V126M78 126h6v6H78V126M138 126h6v6H138V126M162 126h6v6H162V126M174 126h6v6H174V126M180 126h6v6H180V126M24 132h6v6H24V132M36 132h6v6H36V132M42 132h6v6H42V132M54 132h6v6H54V132M60 132h6v6H60V132M72 132h6v6H72V132M84 132h6v6H84V132M90 132h6v6H90V132M96 132h6v6H96V132M114 132h6v6H114V132M120 132h6v6H120V132M132 132h6v6H132V132M150 132h6v6H150V132M24 138h6v6H24V138M36 138h6v6H36V138M42 138h6v6H42V138M78 138h6v6H78V138M90 138h6v6H90V138M108 138h6v6H108V138M132 138h6v6H132V138M138 138h6v6H138V138M144 138h6v6H144V138M150 138h6v6H150V138M156 138h6v6H156V138M162 138h6v6H162V138M174 138h6v6H174V138M180 138h6v6H180V138M186 138h6v6H186V138M24 144h6v6H24V144M36 144h6v6H36V144M48 144h6v6H48V144M60 144h6v6H60V144M66 144h6v6H66V144M78 144h6v6H78V144M84 144h6v6H84V144M90 144h6v6H90V144M114 144h6v6H114V144M120 144h6v6H120V144M126 144h6v6H126V144M132 144h6v6H132V144M144 144h6v6H144V144M156 144h6v6H156V144M162 144h6v6H162V144M168 144h6v6H168V144M186 144h6v6H186V144M192 144h6v6H192V144M72 150h6v6H72V150M78 150h6v6H78V150M96 150h6v6H96V150M102 150h6v6H102V150M108 150h6v6H108V150M138 150h6v6H138V150M144 150h6v6H144V150M150 150h6v6H150V150M162 150h6v6H162V150M168 150h6v6H168V150M174 150h6v6H174V150M180 150h6v6H180V150M186 150h6v6H186V150M24 156h6v6H24V156M30 156h6v6H30V156M36 156h6v6H36V156M42 156h6v6H42V156M48 156h6v6H48V156M54 156h6v6H54V156M60 156h6v6H60V156M72 156h6v6H72V156M78 156h6v6H78V156M84 156h6v6H84V156M102 156h6v6H102V156M108 156h6v6H108V156M114 156h6v6H114V156M144 156h6v6H144V156M150 156h6v6H150V156M180 156h6v6H180V156M186 156h6v6H186V156M24 162h6v6H24V162M60 162h6v6H60V162M84 162h6v6H84V162M96 162h6v6H96V162M102 162h6v6H102V162M132 162h6v6H132V162M144 162h6v6H144V162M150 162h6v6H150V162M156 162h6v6H156V162M162 162h6v6H162V162M180 162h6v6H180V162M24 168h6v6H24V168M36 168h6v6H36V168M42 168h6v6H42V168M48 168h6v6H48V168M60 168h6v6H60V168M72 168h6v6H72V168M78 168h6v6H78V168M84 168h6v6H84V168M96 168h6v6H96V168M108 168h6v6H108V168M114 168h6v6H114V168M120 168h6v6H120V168M126 168h6v6H126V168M132 168h6v6H132V168M162 168h6v6H162V168M168 168h6v6H168V168M174 168h6v6H174V168M180 168h6v6H180V168M186 168h6v6H186V168M192 168h6v6H192V168M24 174h6v6H24V174M36 174h6v6H36V174M42 174h6v6H42V174M48 174h6v6H48V174M60 174h6v6H60V174M72 174h6v6H72V174M126 174h6v6H126V174M132 174h6v6H132V174M138 174h6v6H138V174M144 174h6v6H144V174M168 174h6v6H168V174M192 174h6v6H192V174M24 180h6v6H24V180M36 180h6v6H36V180M42 180h6v6H42V180M48 180h6v6H48V180M60 180h6v6H60V180M72 180h6v6H72V180M90 180h6v6H90V180M96 180h6v6H96V180M114 180h6v6H114V180M120 180h6v6H120V180M126 180h6v6H126V180M156 180h6v6H156V180M162 180h6v6H162V180M168 180h6v6H168V180M180 180h6v6H180V180M192 180h6v6H192V180M24 186h6v6H24V186M60 186h6v6H60V186M72 186h6v6H72V186M90 186h6v6H90V186M108 186h6v6H108V186M114 186h6v6H114V186M132 186h6v6H132V186M144 186h6v6H144V186M150 186h6v6H150V186M168 186h6v6H168V186M192 186h6v6H192V186M24 192h6v6H24V192M30 192h6v6H30V192M36 192h6v6H36V192M42 192h6v6H42V192M48 192h6v6H48V192M54 192h6v6H54V192M60 192h6v6H60V192M72 192h6v6H72V192M78 192h6v6H78V192M90 192h6v6H90V192M114 192h6v6H114V192M120 192h6v6H120V192M126 192h6v6H126V192M132 192h6v6H132V192M156 192h6v6H156V192M168 192h6v6H168V192M174 192h6v6H174V192M180 192h6v6H180V192M186 192h6v6H186V192M192 192h6v6H192V192"/></svg>
