<svg x="10%" y="22%" height="35%" width="80%" viewBox="0 0 200 200"
            shape-rendering="crispEdges">
         <rect x="0" y="0" width="100%" height="100%" fill="#ffffff" />
         <path fill="#00000" d=" M0 0h7v7H0V0M7 0h7v7H7V0M14 0h7v7H14V0M21 0h7v7H21V0M28 0h7v7H28V0M35 0h7v7H35V0M42 0h7v7H42V0M56 0h7v7H56V0M63 0h7v7H63V0M105 0h7v7H105V0M112 0h7v7H112V0M133 0h7v7H133V0M154 0h7v7H154V0M161 0h7v7H161V0M168 0h7v7H168V0M175 0h7v7H175V0M182 0h7v7H182V0M189 0h7v7H189V0M196 0h7v7H196V0M0 7h7v7H0V7M42 7h7v7H42V7M98 7h7v7H98V7M105 7h7v7H105V7M126 7h7v7H126V7M154 7h7v7H154V7M196 7h7v7H196V7M0 14h7v7H0V14M14 14h7v7H14V14M21 14h7v7H21V14M28 14h7v7H28V14M42 14h7v7H42V14M56 14h7v7H56V14M77 14h7v7H77V14M84 14h7v7H84V14M91 14h7v7H91V14M98 14h7v7H98V14M105 14h7v7H105V14M133 14h7v7H133V14M140 14h7v7H140V14M154 14h7v7H154V14M168 14h7v7H168V14M175 14h7v7H175V14M182 14h7v7H182V14M196 14h7v7H196V14M0 21h7v7H0V21M14 21h7v7H14V21M21 21h7v7H21V21M28 21h7v7H28V21M42 21h7v7H42V21M56 21h7v7H56V21M63 21h7v7H63V21M77 21h7v7H77V21M112 21h7v7H112V21M119 21h7v7H119V21M126 21h7v7H126V21M133 21h7v7H133V21M154 21h7v7H154V21M168 21h7v7H168V21M175 21h7v7H175V21M182 21h7v7H182V21M196 21h7v7H196V21M0 28h7v7H0V28M14 28h7v7H14V28M21 28h7v7H21V28M28 28h7v7H28V28M42 28h7v7H42V28M56 28h7v7H56V28M63 28h7v7H63V28M70 28h7v7H70V28M77 28h7v7H77V28M91 28h7v7H91V28M133 28h7v7H133V28M154 28h7v7H154V28M168 28h7v7H168V28M175 28h7v7H175V28M182 28h7v7H182V28M196 28h7v7H196V28M0 35h7v7H0V35M42 35h7v7H42V35M63 35h7v7H63V35M84 35h7v7H84V35M98 35h7v7H98V35M119 35h7v7H119V35M126 35h7v7H126V35M133 35h7v7H133V35M140 35h7v7H140V35M154 35h7v7H154V35M196 35h7v7H196V35M0 42h7v7H0V42M7 42h7v7H7V42M14 42h7v7H14V42M21 42h7v7H21V42M28 42h7v7H28V42M35 42h7v7H35V42M42 42h7v7H42V42M56 42h7v7H56V42M70 42h7v7H70V42M84 42h7v7H84V42M98 42h7v7H98V42M112 42h7v7H112V42M126 42h7v7H126V42M140 42h7v7H140V42M154 42h7v7H154V42M161 42h7v7H161V42M168 42h7v7H168V42M175 42h7v7H175V42M182 42h7v7H182V42M189 42h7v7H189V42M196 42h7v7H196V42M63 49h7v7H63V49M77 49h7v7H77V49M91 49h7v7H91V49M98 49h7v7H98V49M119 49h7v7H119V49M126 49h7v7H126V49M0 56h7v7H0V56M7 56h7v7H7V56M14 56h7v7H14V56M21 56h7v7H21V56M42 56h7v7H42V56M56 56h7v7H56V56M91 56h7v7H91V56M98 56h7v7H98V56M112 56h7v7H112V56M119 56h7v7H119V56M133 56h7v7H133V56M147 56h7v7H147V56M168 56h7v7H168V56M175 56h7v7H175V56M182 56h7v7H182V56M196 56h7v7H196V56M0 63h7v7H0V63M14 63h7v7H14V63M21 63h7v7H21V63M28 63h7v7H28V63M35 63h7v7H35V63M49 63h7v7H49V63M56 63h7v7H56V63M63 63h7v7H63V63M105 63h7v7H105V63M112 63h7v7H112V63M126 63h7v7H126V63M133 63h7v7H133V63M140 63h7v7H140V63M147 63h7v7H147V63M154 63h7v7H154V63M161 63h7v7H161V63M168 63h7v7H168V63M196 63h7v7H196V63M0 70h7v7H0V70M14 70h7v7H14V70M21 70h7v7H21V70M35 70h7v7H35V70M42 70h7v7H42V70M49 70h7v7H49V70M56 70h7v7H56V70M98 70h7v7H98V70M105 70h7v7H105V70M154 70h7v7H154V70M161 70h7v7H161V70M182 70h7v7H182V70M189 70h7v7H189V70M0 77h7v7H0V77M14 77h7v7H14V77M21 77h7v7H21V77M28 77h7v7H28V77M49 77h7v7H49V77M77 77h7v7H77V77M84 77h7v7H84V77M91 77h7v7H91V77M98 77h7v7H98V77M105 77h7v7H105V77M126 77h7v7H126V77M133 77h7v7H133V77M140 77h7v7H140V77M147 77h7v7H147V77M154 77h7v7H154V77M161 77h7v7H161V77M196 77h7v7H196V77M7 84h7v7H7V84M21 84h7v7H21V84M28 84h7v7H28V84M35 84h7v7H35V84M42 84h7v7H42V84M63 84h7v7H63V84M77 84h7v7H77V84M119 84h7v7H119V84M133 84h7v7H133V84M161 84h7v7H161V84M175 84h7v7H175V84M182 84h7v7H182V84M0 91h7v7H0V91M7 91h7v7H7V91M28 91h7v7H28V91M35 91h7v7H35V91M49 91h7v7H49V91M70 91h7v7H70V91M77 91h7v7H77V91M91 91h7v7H91V91M119 91h7v7H119V91M126 91h7v7H126V91M133 91h7v7H133V91M154 91h7v7H154V91M182 91h7v7H182V91M189 91h7v7H189V91M196 91h7v7H196V91M0 98h7v7H0V98M14 98h7v7H14V98M28 98h7v7H28V98M42 98h7v7H42V98M56 98h7v7H56V98M84 98h7v7H84V98M98 98h7v7H98V98M112 98h7v7H112V98M133 98h7v7H133V98M140 98h7v7H140V98M154 98h7v7H154V98M161 98h7v7H161V98M168 98h7v7H168V98M182 98h7v7H182V98M189 98h7v7H189V98M196 98h7v7H196V98M7 105h7v7H7V105M35 105h7v7H35V105M49 105h7v7H49V105M56 105h7v7H56V105M63 105h7v7H63V105M84 105h7v7H84V105M91 105h7v7H91V105M105 105h7v7H105V105M112 105h7v7H112V105M126 105h7v7H126V105M133 105h7v7H133V105M140 105h7v7H140V105M168 105h7v7H168V105M189 105h7v7H189V105M0 112h7v7H0V112M14 112h7v7H14V112M28 112h7v7H28V112M42 112h7v7H42V112M49 112h7v7H49V112M70 112h7v7H70V112M77 112h7v7H77V112M112 112h7v7H112V112M133 112h7v7H133V112M140 112h7v7H140V112M168 112h7v7H168V112M175 112h7v7H175V112M189 112h7v7H189V112M14 119h7v7H14V119M21 119h7v7H21V119M28 119h7v7H28V119M35 119h7v7H35V119M49 119h7v7H49V119M56 119h7v7H56V119M70 119h7v7H70V119M84 119h7v7H84V119M91 119h7v7H91V119M105 119h7v7H105V119M112 119h7v7H112V119M126 119h7v7H126V119M161 119h7v7H161V119M175 119h7v7H175V119M182 119h7v7H182V119M189 119h7v7H189V119M0 126h7v7H0V126M14 126h7v7H14V126M21 126h7v7H21V126M35 126h7v7H35V126M42 126h7v7H42V126M56 126h7v7H56V126M70 126h7v7H70V126M77 126h7v7H77V126M84 126h7v7H84V126M105 126h7v7H105V126M112 126h7v7H112V126M126 126h7v7H126V126M154 126h7v7H154V126M161 126h7v7H161V126M168 126h7v7H168V126M182 126h7v7H182V126M35 133h7v7H35V133M56 133h7v7H56V133M84 133h7v7H84V133M105 133h7v7H105V133M119 133h7v7H119V133M133 133h7v7H133V133M154 133h7v7H154V133M182 133h7v7H182V133M7 140h7v7H7V140M14 140h7v7H14V140M21 140h7v7H21V140M42 140h7v7H42V140M77 140h7v7H77V140M84 140h7v7H84V140M91 140h7v7H91V140M119 140h7v7H119V140M133 140h7v7H133V140M140 140h7v7H140V140M147 140h7v7H147V140M154 140h7v7H154V140M161 140h7v7H161V140M168 140h7v7H168V140M175 140h7v7H175V140M182 140h7v7H182V140M56 147h7v7H56V147M63 147h7v7H63V147M84 147h7v7H84V147M91 147h7v7H91V147M98 147h7v7H98V147M133 147h7v7H133V147M140 147h7v7H140V147M168 147h7v7H168V147M175 147h7v7H175V147M182 147h7v7H182V147M189 147h7v7H189V147M196 147h7v7H196V147M0 154h7v7H0V154M7 154h7v7H7V154M14 154h7v7H14V154M21 154h7v7H21V154M28 154h7v7H28V154M35 154h7v7H35V154M42 154h7v7H42V154M70 154h7v7H70V154M77 154h7v7H77V154M84 154h7v7H84V154M91 154h7v7H91V154M119 154h7v7H119V154M126 154h7v7H126V154M133 154h7v7H133V154M140 154h7v7H140V154M154 154h7v7H154V154M168 154h7v7H168V154M175 154h7v7H175V154M189 154h7v7H189V154M0 161h7v7H0V161M42 161h7v7H42V161M63 161h7v7H63V161M105 161h7v7H105V161M112 161h7v7H112V161M140 161h7v7H140V161M168 161h7v7H168V161M175 161h7v7H175V161M189 161h7v7H189V161M196 161h7v7H196V161M0 168h7v7H0V168M14 168h7v7H14V168M21 168h7v7H21V168M28 168h7v7H28V168M42 168h7v7H42V168M63 168h7v7H63V168M70 168h7v7H70V168M84 168h7v7H84V168M98 168h7v7H98V168M105 168h7v7H105V168M112 168h7v7H112V168M119 168h7v7H119V168M126 168h7v7H126V168M140 168h7v7H140V168M147 168h7v7H147V168M154 168h7v7H154V168M161 168h7v7H161V168M168 168h7v7H168V168M182 168h7v7H182V168M189 168h7v7H189V168M0 175h7v7H0V175M14 175h7v7H14V175M21 175h7v7H21V175M28 175h7v7H28V175M42 175h7v7H42V175M56 175h7v7H56V175M63 175h7v7H63V175M77 175h7v7H77V175M84 175h7v7H84V175M98 175h7v7H98V175M105 175h7v7H105V175M133 175h7v7H133V175M140 175h7v7H140V175M147 175h7v7H147V175M161 175h7v7H161V175M168 175h7v7H168V175M175 175h7v7H175V175M196 175h7v7H196V175M0 182h7v7H0V182M14 182h7v7H14V182M21 182h7v7H21V182M28 182h7v7H28V182M42 182h7v7H42V182M56 182h7v7H56V182M63 182h7v7H63V182M70 182h7v7H70V182M77 182h7v7H77V182M91 182h7v7H91V182M119 182h7v7H119V182M126 182h7v7H126V182M161 182h7v7H161V182M182 182h7v7H182V182M196 182h7v7H196V182M0 189h7v7H0V189M42 189h7v7H42V189M56 189h7v7H56V189M77 189h7v7H77V189M98 189h7v7H98V189M105 189h7v7H105V189M126 189h7v7H126V189M140 189h7v7H140V189M175 189h7v7H175V189M189 189h7v7H189V189M0 196h7v7H0V196M7 196h7v7H7V196M14 196h7v7H14V196M21 196h7v7H21V196M28 196h7v7H28V196M35 196h7v7H35V196M42 196h7v7H42V196M56 196h7v7H56V196M84 196h7v7H84V196M98 196h7v7H98V196M112 196h7v7H112V196M133 196h7v7H133V196M140 196h7v7H140V196M161 196h7v7H161V196M189 196h7v7H189V196"/></svg>
