<?xml version="1.0" standalone="yes"?>
        <svg xmlns="http://www.w3.org/2000/svg" version="1.1"
            viewBox="0 0 222 222" shape-rendering="crispEdges">
        <rect x="0" y="0" width="222" height="222" fill="#e5bde3"/>
        <path fill="#770000" d="M24 24h6v6H24V24M30 24h6v6H30V24M36 24h6v6H36V24M42 24h6v6H42V24M48 24h6v6H48V24M54 24h6v6H54V24M60 24h6v6H60V24M72 24h6v6H72V24M78 24h6v6H78V24M84 24h6v6H84V24M90 24h6v6H90V24M102 24h6v6H102V24M108 24h6v6H108V24M114 24h6v6H114V24M132 24h6v6H132V24M156 24h6v6H156V24M162 24h6v6H162V24M168 24h6v6H168V24M174 24h6v6H174V24M180 24h6v6H180V24M186 24h6v6H186V24M192 24h6v6H192V24M24 30h6v6H24V30M60 30h6v6H60V30M72 30h6v6H72V30M90 30h6v6H90V30M114 30h6v6H114V30M132 30h6v6H132V30M156 30h6v6H156V30M192 30h6v6H192V30M24 36h6v6H24V36M36 36h6v6H36V36M42 36h6v6H42V36M48 36h6v6H48V36M60 36h6v6H60V36M78 36h6v6H78V36M102 36h6v6H102V36M132 36h6v6H132V36M156 36h6v6H156V36M168 36h6v6H168V36M174 36h6v6H174V36M180 36h6v6H180V36M192 36h6v6H192V36M24 42h6v6H24V42M36 42h6v6H36V42M42 42h6v6H42V42M48 42h6v6H48V42M60 42h6v6H60V42M90 42h6v6H90V42M96 42h6v6H96V42M114 42h6v6H114V42M120 42h6v6H120V42M126 42h6v6H126V42M132 42h6v6H132V42M144 42h6v6H144V42M156 42h6v6H156V42M168 42h6v6H168V42M174 42h6v6H174V42M180 42h6v6H180V42M192 42h6v6H192V42M24 48h6v6H24V48M36 48h6v6H36V48M42 48h6v6H42V48M48 48h6v6H48V48M60 48h6v6H60V48M72 48h6v6H72V48M90 48h6v6H90V48M96 48h6v6H96V48M114 48h6v6H114V48M120 48h6v6H120V48M126 48h6v6H126V48M144 48h6v6H144V48M156 48h6v6H156V48M168 48h6v6H168V48M174 48h6v6H174V48M180 48h6v6H180V48M192 48h6v6H192V48M24 54h6v6H24V54M60 54h6v6H60V54M72 54h6v6H72V54M78 54h6v6H78V54M84 54h6v6H84V54M96 54h6v6H96V54M102 54h6v6H102V54M108 54h6v6H108V54M120 54h6v6H120V54M132 54h6v6H132V54M138 54h6v6H138V54M156 54h6v6H156V54M192 54h6v6H192V54M24 60h6v6H24V60M30 60h6v6H30V60M36 60h6v6H36V60M42 60h6v6H42V60M48 60h6v6H48V60M54 60h6v6H54V60M60 60h6v6H60V60M72 60h6v6H72V60M84 60h6v6H84V60M96 60h6v6H96V60M108 60h6v6H108V60M120 60h6v6H120V60M132 60h6v6H132V60M144 60h6v6H144V60M156 60h6v6H156V60M162 60h6v6H162V60M168 60h6v6H168V60M174 60h6v6H174V60M180 60h6v6H180V60M186 60h6v6H186V60M192 60h6v6H192V60M72 66h6v6H72V66M78 66h6v6H78V66M102 66h6v6H102V66M126 66h6v6H126V66M138 66h6v6H138V66M144 66h6v6H144V66M24 72h6v6H24V72M30 72h6v6H30V72M36 72h6v6H36V72M54 72h6v6H54V72M60 72h6v6H60V72M72 72h6v6H72V72M78 72h6v6H78V72M90 72h6v6H90V72M96 72h6v6H96V72M102 72h6v6H102V72M114 72h6v6H114V72M120 72h6v6H120V72M126 72h6v6H126V72M138 72h6v6H138V72M144 72h6v6H144V72M150 72h6v6H150V72M156 72h6v6H156V72M162 72h6v6H162V72M168 72h6v6H168V72M186 72h6v6H186V72M192 72h6v6H192V72M24 78h6v6H24V78M42 78h6v6H42V78M48 78h6v6H48V78M54 78h6v6H54V78M66 78h6v6H66V78M96 78h6v6H96V78M120 78h6v6H120V78M138 78h6v6H138V78M150 78h6v6H150V78M168 78h6v6H168V78M174 78h6v6H174V78M180 78h6v6H180V78M30 84h6v6H30V84M36 84h6v6H36V84M48 84h6v6H48V84M60 84h6v6H60V84M66 84h6v6H66V84M78 84h6v6H78V84M84 84h6v6H84V84M96 84h6v6H96V84M102 84h6v6H102V84M108 84h6v6H108V84M120 84h6v6H120V84M126 84h6v6H126V84M144 84h6v6H144V84M156 84h6v6H156V84M162 84h6v6H162V84M174 84h6v6H174V84M186 84h6v6H186V84M192 84h6v6H192V84M30 90h6v6H30V90M66 90h6v6H66V90M84 90h6v6H84V90M90 90h6v6H90V90M96 90h6v6H96V90M108 90h6v6H108V90M114 90h6v6H114V90M120 90h6v6H120V90M138 90h6v6H138V90M144 90h6v6H144V90M156 90h6v6H156V90M162 90h6v6H162V90M168 90h6v6H168V90M174 90h6v6H174V90M180 90h6v6H180V90M192 90h6v6H192V90M36 96h6v6H36V96M48 96h6v6H48V96M54 96h6v6H54V96M60 96h6v6H60V96M72 96h6v6H72V96M78 96h6v6H78V96M84 96h6v6H84V96M102 96h6v6H102V96M108 96h6v6H108V96M120 96h6v6H120V96M126 96h6v6H126V96M132 96h6v6H132V96M138 96h6v6H138V96M150 96h6v6H150V96M162 96h6v6H162V96M174 96h6v6H174V96M180 96h6v6H180V96M48 102h6v6H48V102M84 102h6v6H84V102M102 102h6v6H102V102M108 102h6v6H108V102M126 102h6v6H126V102M138 102h6v6H138V102M174 102h6v6H174V102M180 102h6v6H180V102M192 102h6v6H192V102M24 108h6v6H24V108M30 108h6v6H30V108M36 108h6v6H36V108M42 108h6v6H42V108M48 108h6v6H48V108M54 108h6v6H54V108M60 108h6v6H60V108M72 108h6v6H72V108M90 108h6v6H90V108M114 108h6v6H114V108M120 108h6v6H120V108M144 108h6v6H144V108M156 108h6v6H156V108M162 108h6v6H162V108M174 108h6v6H174V108M186 108h6v6H186V108M192 108h6v6H192V108M36 114h6v6H36V114M42 114h6v6H42V114M48 114h6v6H48V114M54 114h6v6H54V114M72 114h6v6H72V114M78 114h6v6H78V114M102 114h6v6H102V114M120 114h6v6H120V114M144 114h6v6H144V114M156 114h6v6H156V114M162 114h6v6H162V114M168 114h6v6H168V114M174 114h6v6H174V114M192 114h6v6H192V114M24 120h6v6H24V120M48 120h6v6H48V120M60 120h6v6H60V120M84 120h6v6H84V120M90 120h6v6H90V120M96 120h6v6H96V120M102 120h6v6H102V120M120 120h6v6H120V120M126 120h6v6H126V120M132 120h6v6H132V120M138 120h6v6H138V120M156 120h6v6H156V120M162 120h6v6H162V120M168 120h6v6H168V120M180 120h6v6H180V120M54 126h6v6H54V126M66 126h6v6H66V126M78 126h6v6H78V126M84 126h6v6H84V126M96 126h6v6H96V126M114 126h6v6H114V126M126 126h6v6H126V126M138 126h6v6H138V126M144 126h6v6H144V126M150 126h6v6H150V126M156 126h6v6H156V126M162 126h6v6H162V126M168 126h6v6H168V126M174 126h6v6H174V126M180 126h6v6H180V126M192 126h6v6H192V126M24 132h6v6H24V132M30 132h6v6H30V132M36 132h6v6H36V132M48 132h6v6H48V132M60 132h6v6H60V132M78 132h6v6H78V132M84 132h6v6H84V132M96 132h6v6H96V132M102 132h6v6H102V132M108 132h6v6H108V132M114 132h6v6H114V132M120 132h6v6H120V132M126 132h6v6H126V132M144 132h6v6H144V132M156 132h6v6H156V132M162 132h6v6H162V132M174 132h6v6H174V132M180 132h6v6H180V132M186 132h6v6H186V132M192 132h6v6H192V132M54 138h6v6H54V138M66 138h6v6H66V138M72 138h6v6H72V138M84 138h6v6H84V138M90 138h6v6H90V138M96 138h6v6H96V138M108 138h6v6H108V138M120 138h6v6H120V138M138 138h6v6H138V138M144 138h6v6H144V138M162 138h6v6H162V138M174 138h6v6H174V138M180 138h6v6H180V138M192 138h6v6H192V138M24 144h6v6H24V144M30 144h6v6H30V144M36 144h6v6H36V144M48 144h6v6H48V144M54 144h6v6H54V144M60 144h6v6H60V144M72 144h6v6H72V144M78 144h6v6H78V144M84 144h6v6H84V144M102 144h6v6H102V144M108 144h6v6H108V144M120 144h6v6H120V144M132 144h6v6H132V144M144 144h6v6H144V144M150 144h6v6H150V144M156 144h6v6H156V144M162 144h6v6H162V144M168 144h6v6H168V144M192 144h6v6H192V144M72 150h6v6H72V150M84 150h6v6H84V150M102 150h6v6H102V150M108 150h6v6H108V150M120 150h6v6H120V150M126 150h6v6H126V150M144 150h6v6H144V150M168 150h6v6H168V150M174 150h6v6H174V150M186 150h6v6H186V150M24 156h6v6H24V156M30 156h6v6H30V156M36 156h6v6H36V156M42 156h6v6H42V156M48 156h6v6H48V156M54 156h6v6H54V156M60 156h6v6H60V156M90 156h6v6H90V156M120 156h6v6H120V156M126 156h6v6H126V156M144 156h6v6H144V156M156 156h6v6H156V156M168 156h6v6H168V156M174 156h6v6H174V156M180 156h6v6H180V156M186 156h6v6H186V156M192 156h6v6H192V156M24 162h6v6H24V162M60 162h6v6H60V162M72 162h6v6H72V162M78 162h6v6H78V162M84 162h6v6H84V162M102 162h6v6H102V162M120 162h6v6H120V162M138 162h6v6H138V162M144 162h6v6H144V162M168 162h6v6H168V162M174 162h6v6H174V162M180 162h6v6H180V162M186 162h6v6H186V162M24 168h6v6H24V168M36 168h6v6H36V168M42 168h6v6H42V168M48 168h6v6H48V168M60 168h6v6H60V168M78 168h6v6H78V168M84 168h6v6H84V168M90 168h6v6H90V168M96 168h6v6H96V168M102 168h6v6H102V168M120 168h6v6H120V168M138 168h6v6H138V168M144 168h6v6H144V168M150 168h6v6H150V168M156 168h6v6H156V168M162 168h6v6H162V168M168 168h6v6H168V168M186 168h6v6H186V168M192 168h6v6H192V168M24 174h6v6H24V174M36 174h6v6H36V174M42 174h6v6H42V174M48 174h6v6H48V174M60 174h6v6H60V174M84 174h6v6H84V174M96 174h6v6H96V174M120 174h6v6H120V174M132 174h6v6H132V174M144 174h6v6H144V174M168 174h6v6H168V174M174 174h6v6H174V174M192 174h6v6H192V174M24 180h6v6H24V180M36 180h6v6H36V180M42 180h6v6H42V180M48 180h6v6H48V180M60 180h6v6H60V180M72 180h6v6H72V180M78 180h6v6H78V180M96 180h6v6H96V180M102 180h6v6H102V180M108 180h6v6H108V180M114 180h6v6H114V180M120 180h6v6H120V180M126 180h6v6H126V180M144 180h6v6H144V180M150 180h6v6H150V180M162 180h6v6H162V180M174 180h6v6H174V180M180 180h6v6H180V180M186 180h6v6H186V180M192 180h6v6H192V180M24 186h6v6H24V186M60 186h6v6H60V186M72 186h6v6H72V186M78 186h6v6H78V186M90 186h6v6H90V186M96 186h6v6H96V186M108 186h6v6H108V186M120 186h6v6H120V186M126 186h6v6H126V186M144 186h6v6H144V186M150 186h6v6H150V186M168 186h6v6H168V186M174 186h6v6H174V186M24 192h6v6H24V192M30 192h6v6H30V192M36 192h6v6H36V192M42 192h6v6H42V192M48 192h6v6H48V192M54 192h6v6H54V192M60 192h6v6H60V192M72 192h6v6H72V192M78 192h6v6H78V192M102 192h6v6H102V192M108 192h6v6H108V192M120 192h6v6H120V192M126 192h6v6H126V192M132 192h6v6H132V192M138 192h6v6H138V192M150 192h6v6H150V192M168 192h6v6H168V192M174 192h6v6H174V192M180 192h6v6H180V192M192 192h6v6H192V192"/></svg>
